<?xml version="1.0" encoding="iso-8859-1"?>
<!-- Generator: Adobe Illustrator 19.0.0, SVG Export Plug-In . SVG Version: 6.00 Build 0)  -->
<svg version="1.1" id="Capa_1" xmlns="http://www.w3.org/2000/svg" xmlns:xlink="http://www.w3.org/1999/xlink" x="0px" y="0px"
	 viewBox="0 0 403.84 403.84" style="enable-background:new 0 0 403.84 403.84;" xml:space="preserve">
<g>
	<g>
		<g>
			<path d="M371.84,213.333c-3.627-29.653-15.467-58.24-34.667-82.987l-30.187,30.187c11.413,16.107,18.667,34.133,21.76,52.8
				H371.84z"/>
			<path d="M278.4,97.067L181.333,0v65.493C97.173,75.947,32,147.627,32,234.667s65.173,158.72,149.333,169.173v-43.093
				c-60.48-10.133-106.667-62.72-106.667-126.08s46.187-115.947,106.667-126.08V192L278.4,97.067z"/>
			<path d="M224,360.64v43.2c29.653-3.627,58.453-15.147,83.2-34.347l-30.613-30.613C260.587,350.187,242.667,357.44,224,360.64z"/>
			<path d="M306.987,308.8L306.987,308.8l30.187,30.187c19.2-24.747,31.04-53.333,34.667-82.987h-43.093
				C325.653,274.667,318.4,292.693,306.987,308.8z"/>
		</g>
	</g>
</g>
<g>
</g>
<g>
</g>
<g>
</g>
<g>
</g>
<g>
</g>
<g>
</g>
<g>
</g>
<g>
</g>
<g>
</g>
<g>
</g>
<g>
</g>
<g>
</g>
<g>
</g>
<g>
</g>
<g>
</g>
</svg>
