<?xml version="1.0" encoding="UTF-8"?>
<svg enable-background="new 0 0 512 512" version="1.1" viewBox="0 0 512 512" xml:space="preserve" xmlns="http://www.w3.org/2000/svg">
   <g transform="rotate(90,256,256)">
      <path d="m256 0c-8.284 0-15 6.716-15 15v70c0 8.284 6.716 15 15 15s15-6.716 15-15v-70c0-8.284-6.716-15-15-15z"/>
   </g>
   <g transform="rotate(90,256,256)">
      <path d="m256 137c-8.284 0-15 6.716-15 15v70c0 8.284 6.716 15 15 15s15-6.716 15-15v-70c0-8.284-6.716-15-15-15z"/>
   </g>
   <g transform="rotate(90,256,256)">
      <path d="m256 275c-8.284 0-15 6.716-15 15v70c0 8.284 6.716 15 15 15s15-6.716 15-15v-70c0-8.284-6.716-15-15-15z"/>
   </g>
   <g transform="rotate(90,256,256)">
      <path d="m256 412c-8.284 0-15 6.716-15 15v70c0 8.284 6.716 15 15 15s15-6.716 15-15v-70c0-8.284-6.716-15-15-15z"/>
   </g>
   <g transform="rotate(90,256,256)">
      <path d="m179.4 103.5-120-36.842c-4.549-1.398-9.49-0.553-13.317 2.276-3.827 2.828-6.085 7.304-6.085 12.063v350c0 4.759 2.258 9.235 6.085 12.063 3.841 2.839 8.787 3.668 13.317 2.275l120-36.842c6.299-1.933 10.598-7.751 10.598-14.339v-276.32c0-6.588-4.3-12.405-10.598-14.339z"/>
   </g>
   <g transform="rotate(90,256,256)">
      <path d="m465.92 68.937c-3.826-2.828-8.77-3.673-13.317-2.276l-120 36.842c-6.299 1.933-10.598 7.751-10.598 14.339v276.32c0 6.588 4.3 12.405 10.598 14.339l120 36.842c4.566 1.402 9.505 0.541 13.317-2.276 3.827-2.828 6.085-7.304 6.085-12.063v-350c0-4.759-2.258-9.235-6.085-12.063z"/>
   </g>
</svg>
