<?xml version="1.0" encoding="UTF-8" standalone="no"?>
<svg
   xmlns:dc="http://purl.org/dc/elements/1.1/"
   xmlns:cc="http://creativecommons.org/ns#"
   xmlns:rdf="http://www.w3.org/1999/02/22-rdf-syntax-ns#"
   xmlns:svg="http://www.w3.org/2000/svg"
   xmlns="http://www.w3.org/2000/svg"
   xmlns:sodipodi="http://sodipodi.sourceforge.net/DTD/sodipodi-0.dtd"
   xmlns:inkscape="http://www.inkscape.org/namespaces/inkscape"
   inkscape:version="1.0 (4035a4fb49, 2020-05-01)"
   sodipodi:docname="v-flip.svg"
   xml:space="preserve"
   style="enable-background:new 0 0 512 512;"
   viewBox="0 0 512 512"
   y="0px"
   x="0px"
   id="Capa_1"
   version="1.1"><metadata
   id="metadata73"><rdf:RDF><cc:Work
       rdf:about=""><dc:format>image/svg+xml</dc:format><dc:type
         rdf:resource="http://purl.org/dc/dcmitype/StillImage" /></cc:Work></rdf:RDF></metadata><defs
   id="defs71">















	

	

	

	

	

	
</defs><sodipodi:namedview
   inkscape:current-layer="Capa_1"
   inkscape:window-maximized="1"
   inkscape:window-y="-8"
   inkscape:window-x="-8"
   inkscape:cy="260.25937"
   inkscape:cx="294.95849"
   inkscape:zoom="0.95515719"
   showgrid="false"
   id="namedview69"
   inkscape:window-height="1017"
   inkscape:window-width="1920"
   inkscape:pageshadow="2"
   inkscape:pageopacity="0"
   guidetolerance="10"
   gridtolerance="10"
   objecttolerance="10"
   borderopacity="1"
   bordercolor="#666666"
   pagecolor="#ffffff" />





<g
   transform="rotate(90,256,256)"
   id="g4">
		<path
   d="m 256,0 c -8.284,0 -15,6.716 -15,15 v 70 c 0,8.284 6.716,15 15,15 8.284,0 15,-6.716 15,-15 V 15 C 271,6.716 264.284,0 256,0 Z"
   id="path2" />
	</g><g
   transform="rotate(90,256,256)"
   id="g10">
		<path
   d="m 256,137 c -8.284,0 -15,6.716 -15,15 v 70 c 0,8.284 6.716,15 15,15 8.284,0 15,-6.716 15,-15 v -70 c 0,-8.284 -6.716,-15 -15,-15 z"
   id="path8" />
	</g><g
   transform="rotate(90,256,256)"
   id="g16">
		<path
   d="m 256,275 c -8.284,0 -15,6.716 -15,15 v 70 c 0,8.284 6.716,15 15,15 8.284,0 15,-6.716 15,-15 v -70 c 0,-8.284 -6.716,-15 -15,-15 z"
   id="path14" />
	</g><g
   transform="rotate(90,256,256)"
   id="g22">
		<path
   d="m 256,412 c -8.284,0 -15,6.716 -15,15 v 70 c 0,8.284 6.716,15 15,15 8.284,0 15,-6.716 15,-15 v -70 c 0,-8.284 -6.716,-15 -15,-15 z"
   id="path20" />
	</g><g
   transform="rotate(90,256,256)"
   id="g28">
		<path
   d="m 179.402,103.503 -120,-36.842 C 54.853,65.263 49.912,66.108 46.085,68.937 42.258,71.765 40,76.241 40,81 v 350 c 0,4.759 2.258,9.235 6.085,12.063 3.841,2.839 8.787,3.668 13.317,2.275 l 120,-36.842 C 185.701,406.563 190,400.745 190,394.157 V 117.842 c 0,-6.588 -4.3,-12.405 -10.598,-14.339 z"
   id="path26" />
	</g><g
   transform="rotate(90,256,256)"
   id="g34">
		<path
   d="m 465.915,68.937 c -3.826,-2.828 -8.77,-3.673 -13.317,-2.276 l -120,36.842 C 326.299,105.436 322,111.254 322,117.842 v 276.316 c 0,6.588 4.3,12.405 10.598,14.339 l 120,36.842 c 4.566,1.402 9.505,0.541 13.317,-2.276 C 469.742,440.235 472,435.759 472,431 V 81 c 0,-4.759 -2.258,-9.235 -6.085,-12.063 z"
   id="path32" />
	</g>















</svg>
