<?xml version="1.0" encoding="UTF-8"?>
<svg enable-background="new 0 0 334.367 334.367" version="1.1" viewBox="0 0 334.37 334.37" xml:space="preserve" xmlns="http://www.w3.org/2000/svg">
	<path d="m10.449 52.245h313.47c5.771 0 10.449-4.678 10.449-10.449s-4.678-10.449-10.449-10.449h-313.47c-5.771 0-10.449 4.678-10.449 10.449s4.678 10.449 10.449 10.449z"/>
	<path d="m57.469 114.94c-5.771 0-10.449 4.678-10.449 10.449s4.678 10.449 10.449 10.449h219.43c5.771 0 10.449-4.678 10.449-10.449s-4.678-10.449-10.449-10.449h-219.43z"/>
	<path d="m323.92 198.53h-313.47c-5.771 0-10.449 4.678-10.449 10.449s4.678 10.449 10.449 10.449h313.47c5.771 0 10.449-4.678 10.449-10.449s-4.678-10.449-10.449-10.449z"/>
	<path d="m237.71 282.12h-141.06c-5.771 0-10.449 4.678-10.449 10.449s4.678 10.449 10.449 10.449h141.06c5.771 0 10.449-4.678 10.449-10.449s-4.678-10.449-10.449-10.449z"/>
</svg>
