<?xml version="1.0" encoding="UTF-8"?>
<svg enable-background="new 0 0 426.667 426.667" version="1.1" viewBox="0 0 426.67 426.67" xml:space="preserve" xmlns="http://www.w3.org/2000/svg">
  <g transform="rotate(180 213.33 213.33)"><path d="m426.4 413.65-74.667-330.67c-1.063-4.708-5.167-8.125-9.979-8.302-5.583-0.354-9.188 2.906-10.604 7.521l-37.459 121.73-200.81-200.8c-4.167-4.167-10.917-4.167-15.083 0l-74.667 74.667c-4.167 4.167-4.167 10.917 0 15.083l200.81 200.8-121.75 37.458c-4.604 1.427-7.688 5.771-7.521 10.604 0.188 4.833 3.604 8.938 8.313 10l330.67 74.667c0.792 0.177 1.563 0.26 2.354 0.26 2.792 0 5.521-1.104 7.542-3.125 2.583-2.583 3.666-6.322 2.854-9.895z"/></g>
</svg>
